<svg xmlns="http://www.w3.org/2000/svg" width="700" height="350">
<rect width="700" height="350" fill="white"/>
<text x="350" y="30" text-anchor="middle" font-size="18" font-weight="bold" font-family="sans-serif">Resolution Metrics</text>
<path d="M175,165 L175.0,55.0 A110,110 0 1,1 143.7,59.6 Z" fill="#2ECC71" stroke="white" stroke-width="2"/>
<text x="185.3" y="235.8" text-anchor="middle" font-size="11" font-weight="bold" fill="white" font-family="sans-serif">95.4%</text>
<path d="M175,165 L143.7,59.6 A110,110 0 0,1 175.0,55.0 Z" fill="#E74C3C" stroke="white" stroke-width="2"/>
<text x="164.7" y="94.2" text-anchor="middle" font-size="11" font-weight="bold" fill="white" font-family="sans-serif">4.6%</text>
<rect x="135" y="285" width="14" height="14" fill="#2ECC71"/>
<text x="153" y="297" font-size="12" font-family="sans-serif">Merged</text>
<rect x="135" y="303" width="14" height="14" fill="#E74C3C"/>
<text x="153" y="315" font-size="12" font-family="sans-serif">Open</text>
<text x="175" y="80" text-anchor="middle" font-size="14" font-weight="bold" font-family="sans-serif">PR Status</text>
<path d="M525,165 L525.0,55.0 A110,110 0 1,1 416.9,144.4 Z" fill="#3498DB" stroke="white" stroke-width="2"/>
<text x="570.6" y="220.1" text-anchor="middle" font-size="11" font-weight="bold" fill="white" font-family="sans-serif">78.0%</text>
<path d="M525,165 L416.9,144.4 A110,110 0 0,1 525.0,55.0 Z" fill="#F39C12" stroke="white" stroke-width="2"/>
<text x="479.4" y="109.9" text-anchor="middle" font-size="11" font-weight="bold" fill="white" font-family="sans-serif">22.0%</text>
<rect x="485" y="285" width="14" height="14" fill="#3498DB"/>
<text x="503" y="297" font-size="12" font-family="sans-serif">Closed</text>
<rect x="485" y="303" width="14" height="14" fill="#F39C12"/>
<text x="503" y="315" font-size="12" font-family="sans-serif">Open</text>
<text x="525" y="80" text-anchor="middle" font-size="14" font-weight="bold" font-family="sans-serif">Issue Status</text>
</svg>