<svg xmlns="http://www.w3.org/2000/svg" width="900" height="500" style="background:#fff;font-family:sans-serif">
<text x="450" y="35" text-anchor="middle" font-size="15" font-weight="bold" fill="#222">Session Completion Trends — Last 30 Days (github/gh-aw)</text>
<line x1="60" y1="420.0" x2="820" y2="420.0" stroke="#e0e0e0" stroke-dasharray="4"/>
<text x="52" y="424.0" text-anchor="end" font-size="11" fill="#666">0</text>
<line x1="60" y1="348.0" x2="820" y2="348.0" stroke="#e0e0e0" stroke-dasharray="4"/>
<text x="52" y="352.0" text-anchor="end" font-size="11" fill="#666">10</text>
<line x1="60" y1="276.0" x2="820" y2="276.0" stroke="#e0e0e0" stroke-dasharray="4"/>
<text x="52" y="280.0" text-anchor="end" font-size="11" fill="#666">20</text>
<line x1="60" y1="204.0" x2="820" y2="204.0" stroke="#e0e0e0" stroke-dasharray="4"/>
<text x="52" y="208.0" text-anchor="end" font-size="11" fill="#666">30</text>
<line x1="60" y1="132.0" x2="820" y2="132.0" stroke="#e0e0e0" stroke-dasharray="4"/>
<text x="52" y="136.0" text-anchor="end" font-size="11" fill="#666">40</text>
<line x1="60" y1="60.0" x2="820" y2="60.0" stroke="#e0e0e0" stroke-dasharray="4"/>
<text x="52" y="64.0" text-anchor="end" font-size="11" fill="#666">50</text>
<text x="60.0" y="440" text-anchor="middle" font-size="11" fill="#444" transform="rotate(-35,60.0,440)">Apr 06</text>
<text x="168.6" y="440" text-anchor="middle" font-size="11" fill="#444" transform="rotate(-35,168.6,440)">Apr 07</text>
<text x="277.1" y="440" text-anchor="middle" font-size="11" fill="#444" transform="rotate(-35,277.1,440)">Apr 08</text>
<text x="385.7" y="440" text-anchor="middle" font-size="11" fill="#444" transform="rotate(-35,385.7,440)">Apr 09</text>
<text x="494.3" y="440" text-anchor="middle" font-size="11" fill="#444" transform="rotate(-35,494.3,440)">Apr 15</text>
<text x="602.9" y="440" text-anchor="middle" font-size="11" fill="#444" transform="rotate(-35,602.9,440)">Apr 16</text>
<text x="711.4" y="440" text-anchor="middle" font-size="11" fill="#444" transform="rotate(-35,711.4,440)">Apr 17</text>
<text x="820.0" y="440" text-anchor="middle" font-size="11" fill="#444" transform="rotate(-35,820.0,440)">Apr 18</text>
<rect x="765.7" y="60" width="108.6" height="360" fill="#ede7f6" opacity="0.5"/>
<text x="820.0" y="55" text-anchor="middle" font-size="10" fill="#7b1fa2">Today (in-progress)</text>
<polyline points="60.0,398.4 168.57142857142856,420.0 277.1428571428571,412.8 385.7142857142857,391.2 494.2857142857143,412.8 602.8571428571429,405.6 711.4285714285714,384.0 820.0,384.0" fill="none" stroke="#2ecc71" stroke-width="2.5" stroke-linejoin="round"/>
<polyline points="60.0,369.6 168.57142857142856,384.0 277.1428571428571,384.0 385.7142857142857,391.2 494.2857142857143,376.8 602.8571428571429,384.0 711.4285714285714,369.6 820.0,348.0" fill="none" stroke="#e74c3c" stroke-width="2.5" stroke-linejoin="round"/>
<polyline points="60.0,132.0 168.57142857142856,96.0 277.1428571428571,103.2 385.7142857142857,117.6 494.2857142857143,110.4 602.8571428571429,110.4 711.4285714285714,146.4 820.0,218.4" fill="none" stroke="#f39c12" stroke-width="2" stroke-dasharray="6,3" stroke-linejoin="round"/>
<polyline points="60.0,312.0 168.57142857142856,420.0 277.1428571428571,384.0 385.7142857142857,276.0 494.2857142857143,384.0 602.8571428571429,348.0 711.4285714285714,240.0 820.0,240.0" fill="none" stroke="#3498db" stroke-width="3" stroke-dasharray="3,3" stroke-linejoin="round"/>
<circle cx="60.0" cy="398.4" r="5" fill="#2ecc71"/>
<circle cx="168.6" cy="420.0" r="5" fill="#2ecc71"/>
<circle cx="277.1" cy="412.8" r="5" fill="#2ecc71"/>
<circle cx="385.7" cy="391.2" r="5" fill="#2ecc71"/>
<circle cx="494.3" cy="412.8" r="5" fill="#2ecc71"/>
<circle cx="602.9" cy="405.6" r="5" fill="#2ecc71"/>
<circle cx="711.4" cy="384.0" r="5" fill="#2ecc71"/>
<circle cx="820.0" cy="384.0" r="5" fill="#2ecc71"/>
<circle cx="60.0" cy="369.6" r="5" fill="#e74c3c"/>
<circle cx="168.6" cy="384.0" r="5" fill="#e74c3c"/>
<circle cx="277.1" cy="384.0" r="5" fill="#e74c3c"/>
<circle cx="385.7" cy="391.2" r="5" fill="#e74c3c"/>
<circle cx="494.3" cy="376.8" r="5" fill="#e74c3c"/>
<circle cx="602.9" cy="384.0" r="5" fill="#e74c3c"/>
<circle cx="711.4" cy="369.6" r="5" fill="#e74c3c"/>
<circle cx="820.0" cy="348.0" r="5" fill="#e74c3c"/>
<circle cx="60.0" cy="312.0" r="6" fill="#3498db"/>
<circle cx="168.6" cy="420.0" r="6" fill="#3498db"/>
<circle cx="277.1" cy="384.0" r="6" fill="#3498db"/>
<circle cx="385.7" cy="276.0" r="6" fill="#3498db"/>
<circle cx="494.3" cy="384.0" r="6" fill="#3498db"/>
<circle cx="602.9" cy="348.0" r="6" fill="#3498db"/>
<circle cx="711.4" cy="240.0" r="6" fill="#3498db"/>
<circle cx="820.0" cy="240.0" r="6" fill="#3498db"/>
<line x1="60" y1="60" x2="60" y2="420" stroke="#333" stroke-width="1.5"/>
<line x1="60" y1="420" x2="820" y2="420" stroke="#333" stroke-width="1.5"/>
<line x1="820" y1="60" x2="820" y2="420" stroke="#3498db" stroke-width="1.5"/>
<text x="828" y="424.0" font-size="11" fill="#3498db">0%</text>
<text x="828" y="334.0" font-size="11" fill="#3498db">5%</text>
<text x="828" y="244.0" font-size="11" fill="#3498db">10%</text>
<text x="828" y="154.0" font-size="11" fill="#3498db">15%</text>
<text x="828" y="64.0" font-size="11" fill="#3498db">20%</text>
<text x="20" y="250" text-anchor="middle" font-size="12" fill="#555" transform="rotate(-90,20,250)">Session Count</text>
<text x="885" y="250" text-anchor="middle" font-size="12" fill="#3498db" transform="rotate(90,885,250)">Completion Rate (%)</text>
<rect x="70" y="70" width="18" height="10" fill="#2ecc71" rx="2"/>
<text x="92" y="79" font-size="11" fill="#333">Successful</text>
<rect x="70" y="88" width="18" height="10" fill="#e74c3c" rx="2"/>
<text x="92" y="97" font-size="11" fill="#333">Failed/Skipped</text>
<rect x="70" y="106" width="18" height="10" fill="#f39c12" rx="2"/>
<text x="92" y="115" font-size="11" fill="#333">Action Required (Gates)</text>
<rect x="70" y="124" width="18" height="10" fill="#3498db" rx="2"/>
<text x="92" y="133" font-size="11" fill="#333">Completion Rate %</text>
</svg>