<svg xmlns="http://www.w3.org/2000/svg" width="900" height="500" style="background:#fff;font-family:sans-serif">
<text x="450" y="35" text-anchor="middle" font-size="15" font-weight="bold" fill="#222">Copilot Session Duration &amp; Efficiency — Last 30 Days</text>
<line x1="60" y1="420.0" x2="820" y2="420.0" stroke="#e0e0e0" stroke-dasharray="4"/>
<text x="52" y="424.0" text-anchor="end" font-size="11" fill="#666">0m</text>
<line x1="60" y1="360.0" x2="820" y2="360.0" stroke="#e0e0e0" stroke-dasharray="4"/>
<text x="52" y="364.0" text-anchor="end" font-size="11" fill="#666">10m</text>
<line x1="60" y1="300.0" x2="820" y2="300.0" stroke="#e0e0e0" stroke-dasharray="4"/>
<text x="52" y="304.0" text-anchor="end" font-size="11" fill="#666">20m</text>
<line x1="60" y1="240.0" x2="820" y2="240.0" stroke="#e0e0e0" stroke-dasharray="4"/>
<text x="52" y="244.0" text-anchor="end" font-size="11" fill="#666">30m</text>
<line x1="60" y1="180.0" x2="820" y2="180.0" stroke="#e0e0e0" stroke-dasharray="4"/>
<text x="52" y="184.0" text-anchor="end" font-size="11" fill="#666">40m</text>
<line x1="60" y1="120.0" x2="820" y2="120.0" stroke="#e0e0e0" stroke-dasharray="4"/>
<text x="52" y="124.0" text-anchor="end" font-size="11" fill="#666">50m</text>
<line x1="60" y1="60.0" x2="820" y2="60.0" stroke="#e0e0e0" stroke-dasharray="4"/>
<text x="52" y="64.0" text-anchor="end" font-size="11" fill="#666">60m</text>
<rect x="32.9" y="375.0" width="54.3" height="45.0" fill="#bdc3c7" opacity="0.65"/>
<rect x="141.4" y="420.0" width="54.3" height="0.0" fill="#bdc3c7" opacity="0.65"/>
<rect x="250.0" y="420.0" width="54.3" height="0.0" fill="#bdc3c7" opacity="0.65"/>
<rect x="358.6" y="397.5" width="54.3" height="22.5" fill="#bdc3c7" opacity="0.65"/>
<rect x="467.1" y="352.5" width="54.3" height="67.5" fill="#bdc3c7" opacity="0.65"/>
<rect x="575.7" y="375.0" width="54.3" height="45.0" fill="#bdc3c7" opacity="0.65"/>
<rect x="684.3" y="330.0" width="54.3" height="90.0" fill="#bdc3c7" opacity="0.65"/>
<rect x="792.9" y="420.0" width="54.3" height="0.0" fill="#bdc3c7" opacity="0.65"/>
<polyline points="60.0,389.0 168.57142857142856,418.9 277.1428571428571,365.2 385.7142857142857,358.6 494.2857142857143,111.6 602.8571428571429,186.4 711.4285714285714,111.0 820.0,418.9" fill="none" stroke="#e67e22" stroke-width="3" stroke-linejoin="round"/>
<polyline points="60.0,345.0 168.57142857142856,420.0 277.1428571428571,120.0 385.7142857142857,120.0 494.2857142857143,120.0 602.8571428571429,120.0 711.4285714285714,120.0 820.0,420.0" fill="none" stroke="#27ae60" stroke-width="2.5" stroke-dasharray="6,3" stroke-linejoin="round"/>
<circle cx="60.0" cy="389.0" r="7" fill="#e67e22"/>
<circle cx="168.6" cy="418.9" r="7" fill="#e67e22"/>
<circle cx="277.1" cy="365.2" r="7" fill="#e67e22"/>
<circle cx="385.7" cy="358.6" r="7" fill="#e67e22"/>
<circle cx="494.3" cy="111.6" r="7" fill="#e67e22"/>
<text x="494.3" y="99.6" text-anchor="middle" font-size="10" fill="#e67e22" font-weight="bold">51m</text>
<circle cx="602.9" cy="186.4" r="7" fill="#e67e22"/>
<text x="602.9" y="174.4" text-anchor="middle" font-size="10" fill="#e67e22" font-weight="bold">39m</text>
<circle cx="711.4" cy="111.0" r="7" fill="#e67e22"/>
<text x="711.4" y="99.0" text-anchor="middle" font-size="10" fill="#e67e22" font-weight="bold">52m</text>
<circle cx="820.0" cy="418.9" r="7" fill="#e67e22"/>
<circle cx="60.0" cy="345.0" r="6" fill="#27ae60"/>
<circle cx="168.6" cy="420.0" r="6" fill="#27ae60"/>
<circle cx="277.1" cy="120.0" r="6" fill="#27ae60"/>
<circle cx="385.7" cy="120.0" r="6" fill="#27ae60"/>
<circle cx="494.3" cy="120.0" r="6" fill="#27ae60"/>
<circle cx="602.9" cy="120.0" r="6" fill="#27ae60"/>
<circle cx="711.4" cy="120.0" r="6" fill="#27ae60"/>
<circle cx="820.0" cy="420.0" r="6" fill="#27ae60"/>
<rect x="765.7" y="60" width="108.6" height="360" fill="#ede7f6" opacity="0.5"/>
<text x="820.0" y="55" text-anchor="middle" font-size="10" fill="#7b1fa2">Today</text>
<text x="820.0" y="446.9" text-anchor="middle" font-size="9" fill="#7b1fa2">Agents</text>
<text x="820.0" y="458.9" text-anchor="middle" font-size="9" fill="#7b1fa2">pending</text>
<text x="60.0" y="440" text-anchor="middle" font-size="11" fill="#444" transform="rotate(-35,60.0,440)">Apr 06</text>
<text x="168.6" y="440" text-anchor="middle" font-size="11" fill="#444" transform="rotate(-35,168.6,440)">Apr 07</text>
<text x="277.1" y="440" text-anchor="middle" font-size="11" fill="#444" transform="rotate(-35,277.1,440)">Apr 08</text>
<text x="385.7" y="440" text-anchor="middle" font-size="11" fill="#444" transform="rotate(-35,385.7,440)">Apr 09</text>
<text x="494.3" y="440" text-anchor="middle" font-size="11" fill="#444" transform="rotate(-35,494.3,440)">Apr 15</text>
<text x="602.9" y="440" text-anchor="middle" font-size="11" fill="#444" transform="rotate(-35,602.9,440)">Apr 16</text>
<text x="711.4" y="440" text-anchor="middle" font-size="11" fill="#444" transform="rotate(-35,711.4,440)">Apr 17</text>
<text x="820.0" y="440" text-anchor="middle" font-size="11" fill="#444" transform="rotate(-35,820.0,440)">Apr 18</text>
<line x1="60" y1="60" x2="60" y2="420" stroke="#333" stroke-width="1.5"/>
<line x1="60" y1="420" x2="820" y2="420" stroke="#333" stroke-width="1.5"/>
<line x1="820" y1="60" x2="820" y2="420" stroke="#27ae60" stroke-width="1.5"/>
<text x="828" y="424.0" font-size="11" fill="#27ae60">0%</text>
<text x="828" y="349.0" font-size="11" fill="#27ae60">25%</text>
<text x="828" y="274.0" font-size="11" fill="#27ae60">50%</text>
<text x="828" y="199.0" font-size="11" fill="#27ae60">75%</text>
<text x="828" y="124.0" font-size="11" fill="#27ae60">100%</text>
<text x="20" y="250" text-anchor="middle" font-size="12" fill="#555" transform="rotate(-90,20,250)">Duration (min)</text>
<text x="885" y="250" text-anchor="middle" font-size="12" fill="#27ae60" transform="rotate(90,885,250)">Success Rate (%)</text>
<rect x="70" y="70" width="18" height="10" fill="#e67e22" rx="2" opacity="0.85"/>
<text x="92" y="79" font-size="11" fill="#333">Avg Copilot Duration (min)</text>
<rect x="70" y="88" width="18" height="10" fill="#27ae60" rx="2" opacity="0.85"/>
<text x="92" y="97" font-size="11" fill="#333">Copilot Success Rate (%)</text>
<rect x="70" y="106" width="18" height="10" fill="#bdc3c7" rx="2" opacity="0.85"/>
<text x="92" y="115" font-size="11" fill="#333">Sessions with Loops (bars)</text>
</svg>