<svg xmlns="http://www.w3.org/2000/svg" width="900" height="520" style="background:#fff;font-family:Arial,sans-serif;">
<text x="450" y="35" text-anchor="middle" font-size="15" font-weight="bold" fill="#222">Copilot Agent Session Duration &amp; Branch Efficiency</text>
<text x="450" y="52" text-anchor="middle" font-size="11" fill="#555">(Available Historical Dates)</text>
<line x1="70" y1="440.0" x2="810" y2="440.0" stroke="#ddd" stroke-width="1"/>
<text x="62" y="444.0" text-anchor="end" font-size="10" fill="#666">0</text>
<line x1="70" y1="376.7" x2="810" y2="376.7" stroke="#ddd" stroke-width="1"/>
<text x="62" y="380.7" text-anchor="end" font-size="10" fill="#666">1</text>
<line x1="70" y1="313.3" x2="810" y2="313.3" stroke="#ddd" stroke-width="1"/>
<text x="62" y="317.3" text-anchor="end" font-size="10" fill="#666">2</text>
<line x1="70" y1="250.0" x2="810" y2="250.0" stroke="#ddd" stroke-width="1"/>
<text x="62" y="254.0" text-anchor="end" font-size="10" fill="#666">3</text>
<line x1="70" y1="186.7" x2="810" y2="186.7" stroke="#ddd" stroke-width="1"/>
<text x="62" y="190.7" text-anchor="end" font-size="10" fill="#666">4</text>
<line x1="70" y1="123.3" x2="810" y2="123.3" stroke="#ddd" stroke-width="1"/>
<text x="62" y="127.3" text-anchor="end" font-size="10" fill="#666">5</text>
<text x="820" y="444.0" text-anchor="start" font-size="10" fill="#e67e22">0</text>
<text x="820" y="385.5" text-anchor="start" font-size="10" fill="#e67e22">10</text>
<text x="820" y="327.1" text-anchor="start" font-size="10" fill="#e67e22">20</text>
<text x="820" y="268.6" text-anchor="start" font-size="10" fill="#e67e22">30</text>
<text x="820" y="210.2" text-anchor="start" font-size="10" fill="#e67e22">40</text>
<text x="820" y="151.7" text-anchor="start" font-size="10" fill="#e67e22">50</text>
<text x="820" y="93.2" text-anchor="start" font-size="10" fill="#e67e22">60</text>
<rect x="92.7" y="313.3" width="37.0" height="126.7" fill="#95a5a6" opacity="0.8" rx="2"/>
<rect x="133.7" y="376.7" width="37.0" height="63.3" fill="#2ecc71" opacity="0.8" rx="2"/>
<text x="131.7" y="458" text-anchor="middle" font-size="10" fill="#444">04-06</text>
<rect x="216.0" y="376.7" width="37.0" height="63.3" fill="#95a5a6" opacity="0.8" rx="2"/>
<rect x="257.0" y="440.0" width="37.0" height="0.0" fill="#2ecc71" opacity="0.8" rx="2"/>
<text x="255.0" y="458" text-anchor="middle" font-size="10" fill="#444">04-07</text>
<rect x="339.3" y="376.7" width="37.0" height="63.3" fill="#95a5a6" opacity="0.8" rx="2"/>
<rect x="380.3" y="376.7" width="37.0" height="63.3" fill="#2ecc71" opacity="0.8" rx="2"/>
<text x="378.3" y="458" text-anchor="middle" font-size="10" fill="#444">04-08</text>
<rect x="462.7" y="376.7" width="37.0" height="63.3" fill="#95a5a6" opacity="0.8" rx="2"/>
<rect x="503.7" y="313.3" width="37.0" height="126.7" fill="#2ecc71" opacity="0.8" rx="2"/>
<text x="501.7" y="458" text-anchor="middle" font-size="10" fill="#444">04-09</text>
<rect x="586.0" y="313.3" width="37.0" height="126.7" fill="#95a5a6" opacity="0.8" rx="2"/>
<rect x="627.0" y="376.7" width="37.0" height="63.3" fill="#2ecc71" opacity="0.8" rx="2"/>
<text x="625.0" y="458" text-anchor="middle" font-size="10" fill="#444">04-15</text>
<rect x="709.3" y="250.0" width="37.0" height="190.0" fill="#95a5a6" opacity="0.8" rx="2"/>
<rect x="750.3" y="313.3" width="37.0" height="126.7" fill="#2ecc71" opacity="0.8" rx="2"/>
<text x="748.3" y="458" text-anchor="middle" font-size="10" fill="#444">04-16</text>
<circle cx="131.7" cy="409.8" r="6" fill="#e67e22" stroke="#fff" stroke-width="2"/>
<text x="131.7" y="398.8" text-anchor="middle" font-size="10" fill="#d35400" font-weight="bold">5.2m</text>
<circle cx="255.0" cy="438.9" r="6" fill="#e67e22" stroke="#fff" stroke-width="2"/>
<text x="255.0" y="427.9" text-anchor="middle" font-size="10" fill="#d35400" font-weight="bold">0.2m</text>
<circle cx="378.3" cy="386.6" r="6" fill="#e67e22" stroke="#fff" stroke-width="2"/>
<text x="378.3" y="375.6" text-anchor="middle" font-size="10" fill="#d35400" font-weight="bold">9.1m</text>
<circle cx="501.7" cy="380.1" r="6" fill="#e67e22" stroke="#fff" stroke-width="2"/>
<text x="501.7" y="369.1" text-anchor="middle" font-size="10" fill="#d35400" font-weight="bold">10.2m</text>
<circle cx="625.0" cy="139.5" r="6" fill="#e67e22" stroke="#fff" stroke-width="2"/>
<text x="625.0" y="128.5" text-anchor="middle" font-size="10" fill="#d35400" font-weight="bold">51.4m</text>
<circle cx="748.3" cy="212.4" r="6" fill="#e67e22" stroke="#fff" stroke-width="2"/>
<text x="748.3" y="201.4" text-anchor="middle" font-size="10" fill="#d35400" font-weight="bold">38.9m</text>
<polyline points="131.7,409.8 255.0,438.9 378.3,386.6 501.7,380.1 625.0,139.5 748.3,212.4" fill="none" stroke="#e67e22" stroke-width="2.5" stroke-linejoin="round"/>
<polygon points="131.7,440 131.7,409.8 255.0,438.9 378.3,386.6 501.7,380.1 625.0,139.5 748.3,212.4 748.3,440" fill="#e67e22" opacity="0.1"/>
<line x1="70" y1="60" x2="70" y2="440" stroke="#888" stroke-width="1.5"/>
<line x1="810" y1="60" x2="810" y2="440" stroke="#888" stroke-width="1.5"/>
<line x1="70" y1="440" x2="810" y2="440" stroke="#888" stroke-width="1.5"/>
<text x="15" y="250" text-anchor="middle" font-size="12" fill="#444" transform="rotate(-90,15,250)">Branch Count</text>
<text x="875" y="250" text-anchor="middle" font-size="12" fill="#e67e22" transform="rotate(90,875,250)">Avg Copilot Duration (min)</text>
<text x="440" y="510" text-anchor="middle" font-size="12" fill="#444">Date</text>
<rect x="80" y="70" width="14" height="14" fill="#95a5a6" opacity="0.8" rx="2"/>
<text x="98" y="81" font-size="10" fill="#222">Branches Attempted</text>
<rect x="80" y="90" width="14" height="14" fill="#2ecc71" opacity="0.8" rx="2"/>
<text x="98" y="101" font-size="10" fill="#222">Branches Succeeded</text>
<circle cx="87" cy="117" r="6" fill="#e67e22"/>
<text x="98" y="121" font-size="10" fill="#222">Avg Copilot Duration (min)</text>
</svg>