<svg xmlns="http://www.w3.org/2000/svg" width="900" height="520" style="background:#fff;font-family:Arial,sans-serif;">
<text x="450" y="35" text-anchor="middle" font-size="15" font-weight="bold" fill="#222">Copilot Agent Session Completion Trends</text>
<text x="450" y="52" text-anchor="middle" font-size="11" fill="#555">(Available Historical Dates)</text>
<line x1="70" y1="440.0" x2="810" y2="440.0" stroke="#ddd" stroke-width="1"/>
<text x="62" y="444.0" text-anchor="end" font-size="10" fill="#666">0</text>
<line x1="70" y1="370.9" x2="810" y2="370.9" stroke="#ddd" stroke-width="1"/>
<text x="62" y="374.9" text-anchor="end" font-size="10" fill="#666">10</text>
<line x1="70" y1="301.8" x2="810" y2="301.8" stroke="#ddd" stroke-width="1"/>
<text x="62" y="305.8" text-anchor="end" font-size="10" fill="#666">20</text>
<line x1="70" y1="232.7" x2="810" y2="232.7" stroke="#ddd" stroke-width="1"/>
<text x="62" y="236.7" text-anchor="end" font-size="10" fill="#666">30</text>
<line x1="70" y1="163.6" x2="810" y2="163.6" stroke="#ddd" stroke-width="1"/>
<text x="62" y="167.6" text-anchor="end" font-size="10" fill="#666">40</text>
<line x1="70" y1="94.5" x2="810" y2="94.5" stroke="#ddd" stroke-width="1"/>
<text x="62" y="98.5" text-anchor="end" font-size="10" fill="#666">50</text>
<text x="820" y="444.0" text-anchor="start" font-size="10" fill="#2980b9">0%</text>
<text x="820" y="370.9" text-anchor="start" font-size="10" fill="#2980b9">25%</text>
<text x="820" y="297.8" text-anchor="start" font-size="10" fill="#2980b9">50%</text>
<text x="820" y="224.8" text-anchor="start" font-size="10" fill="#2980b9">75%</text>
<text x="820" y="151.7" text-anchor="start" font-size="10" fill="#2980b9">100%</text>
<rect x="92.7" y="115.3" width="37.0" height="324.7" fill="#e74c3c" opacity="0.65" rx="2"/>
<rect x="133.7" y="412.4" width="37.0" height="27.6" fill="#2ecc71" opacity="0.85" rx="2"/>
<text x="131.7" y="458" text-anchor="middle" font-size="10" fill="#444">04-06</text>
<rect x="216.0" y="94.5" width="37.0" height="345.5" fill="#e74c3c" opacity="0.65" rx="2"/>
<rect x="257.0" y="426.2" width="37.0" height="13.8" fill="#2ecc71" opacity="0.85" rx="2"/>
<text x="255.0" y="458" text-anchor="middle" font-size="10" fill="#444">04-07</text>
<rect x="339.3" y="101.5" width="37.0" height="338.5" fill="#e74c3c" opacity="0.65" rx="2"/>
<rect x="380.3" y="433.1" width="37.0" height="6.9" fill="#2ecc71" opacity="0.85" rx="2"/>
<text x="378.3" y="458" text-anchor="middle" font-size="10" fill="#444">04-08</text>
<rect x="462.7" y="122.2" width="37.0" height="317.8" fill="#e74c3c" opacity="0.65" rx="2"/>
<rect x="503.7" y="426.2" width="37.0" height="13.8" fill="#2ecc71" opacity="0.85" rx="2"/>
<text x="501.7" y="458" text-anchor="middle" font-size="10" fill="#444">04-09</text>
<rect x="586.0" y="101.5" width="37.0" height="338.5" fill="#e74c3c" opacity="0.65" rx="2"/>
<rect x="627.0" y="433.1" width="37.0" height="6.9" fill="#2ecc71" opacity="0.85" rx="2"/>
<text x="625.0" y="458" text-anchor="middle" font-size="10" fill="#444">04-15</text>
<rect x="709.3" y="108.4" width="37.0" height="331.6" fill="#e74c3c" opacity="0.65" rx="2"/>
<rect x="750.3" y="426.2" width="37.0" height="13.8" fill="#2ecc71" opacity="0.85" rx="2"/>
<text x="748.3" y="458" text-anchor="middle" font-size="10" fill="#444">04-16</text>
<circle cx="131.7" cy="366.9" r="6" fill="#3498db" stroke="#fff" stroke-width="2"/>
<text x="131.7" y="355.9" text-anchor="middle" font-size="10" fill="#2980b9" font-weight="bold">25%</text>
<circle cx="255.0" cy="440.0" r="6" fill="#3498db" stroke="#fff" stroke-width="2"/>
<text x="255.0" y="429.0" text-anchor="middle" font-size="10" fill="#2980b9" font-weight="bold">0%</text>
<circle cx="378.3" cy="147.7" r="6" fill="#3498db" stroke="#fff" stroke-width="2"/>
<text x="378.3" y="136.7" text-anchor="middle" font-size="10" fill="#2980b9" font-weight="bold">100%</text>
<circle cx="501.7" cy="147.7" r="6" fill="#3498db" stroke="#fff" stroke-width="2"/>
<text x="501.7" y="136.7" text-anchor="middle" font-size="10" fill="#2980b9" font-weight="bold">100%</text>
<circle cx="625.0" cy="147.7" r="6" fill="#3498db" stroke="#fff" stroke-width="2"/>
<text x="625.0" y="136.7" text-anchor="middle" font-size="10" fill="#2980b9" font-weight="bold">100%</text>
<circle cx="748.3" cy="147.7" r="6" fill="#3498db" stroke="#fff" stroke-width="2"/>
<text x="748.3" y="136.7" text-anchor="middle" font-size="10" fill="#2980b9" font-weight="bold">100%</text>
<polyline points="131.7,366.9 255.0,440.0 378.3,147.7 501.7,147.7 625.0,147.7 748.3,147.7" fill="none" stroke="#3498db" stroke-width="2.5" stroke-linejoin="round"/>
<line x1="70" y1="60" x2="70" y2="440" stroke="#888" stroke-width="1.5"/>
<line x1="810" y1="60" x2="810" y2="440" stroke="#888" stroke-width="1.5"/>
<line x1="70" y1="440" x2="810" y2="440" stroke="#888" stroke-width="1.5"/>
<text x="15" y="250" text-anchor="middle" font-size="12" fill="#444" transform="rotate(-90,15,250)">Session Count</text>
<text x="875" y="250" text-anchor="middle" font-size="12" fill="#2980b9" transform="rotate(90,875,250)">Copilot Success Rate (%)</text>
<text x="440" y="510" text-anchor="middle" font-size="12" fill="#444">Date</text>
<rect x="80" y="70" width="14" height="14" fill="#2ecc71" opacity="0.85" rx="2"/>
<text x="98" y="81" font-size="10" fill="#222">Copilot Agent Sessions</text>
<rect x="80" y="90" width="14" height="14" fill="#e74c3c" opacity="0.65" rx="2"/>
<text x="98" y="101" font-size="10" fill="#222">Non-Copilot / Failed Runs</text>
<circle cx="87" cy="117" r="6" fill="#3498db"/>
<text x="98" y="121" font-size="10" fill="#222">Copilot Success Rate %</text>
</svg>