<svg xmlns="http://www.w3.org/2000/svg" width="900" height="500" style="background:white;font-family:Arial,sans-serif">
  <defs>
    <marker id="arr" markerWidth="8" markerHeight="8" refX="6" refY="3" orient="auto">
      <path d="M0,0 L0,6 L6,3 z" fill="#FF6B6B"/>
    </marker>
  </defs>
  <rect width="900" height="500" fill="white"/>
  <text x="450" y="22" text-anchor="middle" font-size="15" font-weight="bold" fill="#222">Issues &amp; Pull Requests Activity</text>
  <text x="450" y="40" text-anchor="middle" font-size="11" fill="#666">Last 30 Days — github/gh-aw</text>
  <line x1="60" y1="420" x2="870" y2="420" stroke="#e0e0e0" stroke-width="1"/>
     <text x="52" y="424" text-anchor="end" font-size="11" fill="#666">0</text>
<line x1="60" y1="375" x2="870" y2="375" stroke="#e0e0e0" stroke-width="1"/>
     <text x="52" y="379" text-anchor="end" font-size="11" fill="#666">10</text>
<line x1="60" y1="330" x2="870" y2="330" stroke="#e0e0e0" stroke-width="1"/>
     <text x="52" y="334" text-anchor="end" font-size="11" fill="#666">20</text>
<line x1="60" y1="285" x2="870" y2="285" stroke="#e0e0e0" stroke-width="1"/>
     <text x="52" y="289" text-anchor="end" font-size="11" fill="#666">30</text>
<line x1="60" y1="240" x2="870" y2="240" stroke="#e0e0e0" stroke-width="1"/>
     <text x="52" y="244" text-anchor="end" font-size="11" fill="#666">40</text>
<line x1="60" y1="195" x2="870" y2="195" stroke="#e0e0e0" stroke-width="1"/>
     <text x="52" y="199" text-anchor="end" font-size="11" fill="#666">50</text>
<line x1="60" y1="150" x2="870" y2="150" stroke="#e0e0e0" stroke-width="1"/>
     <text x="52" y="154" text-anchor="end" font-size="11" fill="#666">60</text>
<line x1="60" y1="105" x2="870" y2="105" stroke="#e0e0e0" stroke-width="1"/>
     <text x="52" y="109" text-anchor="end" font-size="11" fill="#666">70</text>
<line x1="60" y1="60" x2="870" y2="60" stroke="#e0e0e0" stroke-width="1"/>
     <text x="52" y="64" text-anchor="end" font-size="11" fill="#666">80</text>
  <line x1="60" y1="60" x2="60" y2="420" stroke="#aaa" stroke-width="1.5"/>
  <line x1="60" y1="420" x2="870" y2="420" stroke="#aaa" stroke-width="1.5"/>
  <path d="M 60,420 L 87,420 L 114,420 L 141,420 L 168,420 L 195,420 L 222,420 L 249,420 L 276,420 L 303,420 L 330,420 L 357,420 L 384,420 L 411,420 L 438,420 L 465,420 L 492,420 L 519,420 L 546,420 L 573,420 L 600,420 L 627,420 L 654,420 L 681,420 L 708,420 L 735,420 L 762,420 L 789,420 L 816,420 L 843,321 L 870,69" stroke="#FF6B6B" stroke-width="2.5" fill="none" opacity="0.9"/><path d="M 60,420 L 87,420 L 114,420 L 141,420 L 168,420 L 195,420 L 222,420 L 249,420 L 276,420 L 303,420 L 330,420 L 357,420 L 384,420 L 411,420 L 438,420 L 465,420 L 492,420 L 519,420 L 546,420 L 573,420 L 600,420 L 627,420 L 654,420 L 681,420 L 708,420 L 735,420 L 762,420 L 789,420 L 816,420 L 843,397.5 L 870,249" stroke="#4ECDC4" stroke-width="2.5" fill="none" opacity="0.9"/><path d="M 60,420 L 87,420 L 114,420 L 141,420 L 168,420 L 195,420 L 222,420 L 249,420 L 276,420 L 303,420 L 330,420 L 357,420 L 384,420 L 411,420 L 438,420 L 465,420 L 492,420 L 519,420 L 546,420 L 573,420 L 600,420 L 627,420 L 654,420 L 681,420 L 708,420 L 735,420 L 762,420 L 789,420 L 816,420 L 843,195 L 870,195" stroke="#45B7D1" stroke-width="2.5" fill="none" opacity="0.9"/><path d="M 60,420 L 87,420 L 114,420 L 141,420 L 168,420 L 195,420 L 222,420 L 249,420 L 276,420 L 303,420 L 330,420 L 357,420 L 384,420 L 411,420 L 438,420 L 465,420 L 492,420 L 519,420 L 546,420 L 573,420 L 600,420 L 627,420 L 654,420 L 681,420 L 708,420 L 735,420 L 762,420 L 789,420 L 816,420 L 843,294 L 870,213.00000000000003" stroke="#FFA07A" stroke-width="2.5" fill="none" opacity="0.9"/>
  <circle cx="843" cy="321" r="4" fill="#FF6B6B" opacity="0.9"/><circle cx="870" cy="69" r="4" fill="#FF6B6B" opacity="0.9"/><circle cx="843" cy="397.5" r="4" fill="#4ECDC4" opacity="0.9"/><circle cx="870" cy="249" r="4" fill="#4ECDC4" opacity="0.9"/><circle cx="843" cy="195" r="4" fill="#45B7D1" opacity="0.9"/><circle cx="870" cy="195" r="4" fill="#45B7D1" opacity="0.9"/><circle cx="843" cy="294" r="4" fill="#FFA07A" opacity="0.9"/><circle cx="870" cy="213.00000000000003" r="4" fill="#FFA07A" opacity="0.9"/>
  <text x="60" y="445" text-anchor="middle" font-size="10" fill="#666" transform="rotate(-30,60,445)">04-05</text>




<text x="195" y="445" text-anchor="middle" font-size="10" fill="#666" transform="rotate(-30,195,445)">04-10</text>




<text x="330" y="445" text-anchor="middle" font-size="10" fill="#666" transform="rotate(-30,330,445)">04-15</text>




<text x="465" y="445" text-anchor="middle" font-size="10" fill="#666" transform="rotate(-30,465,445)">04-20</text>




<text x="600" y="445" text-anchor="middle" font-size="10" fill="#666" transform="rotate(-30,600,445)">04-25</text>




<text x="735" y="445" text-anchor="middle" font-size="10" fill="#666" transform="rotate(-30,735,445)">04-30</text>




<text x="870" y="445" text-anchor="middle" font-size="10" fill="#666" transform="rotate(-30,870,445)">05-05</text>
  <rect x="60" y="472" width="12" height="12" fill="#FF6B6B"/>
     <text x="76" y="482" font-size="11" fill="#333">Issues Opened</text>
<rect x="235" y="472" width="12" height="12" fill="#4ECDC4"/>
     <text x="251" y="482" font-size="11" fill="#333">Issues Closed</text>
<rect x="410" y="472" width="12" height="12" fill="#45B7D1"/>
     <text x="426" y="482" font-size="11" fill="#333">PRs Opened</text>
<rect x="585" y="472" width="12" height="12" fill="#FFA07A"/>
     <text x="601" y="482" font-size="11" fill="#333">PRs Merged</text>
  
    <line x1="870" y1="61" x2="830" y2="34" stroke="#FF6B6B" stroke-width="1.5" marker-end="url(#arr)"/>
    <text x="825" y="29" text-anchor="end" font-size="10" fill="#FF6B6B" font-weight="bold">Peak: 78</text>
  
  <text x="15" y="240" text-anchor="middle" font-size="12" fill="#555" transform="rotate(-90,15,240)">Count</text>
  <text x="465" y="475" text-anchor="middle" font-size="12" fill="#555">Date</text>
</svg>